<svg xmlns="http://www.w3.org/2000/svg" width="31.783" height="29.248" viewBox="0 0 31.783 29.248">
  <path id="Path_484" data-name="Path 484" d="M7.3,29.272H24.482c3.228,0,4.983-1.72,4.983-4.932V7.751H26.4V24.293a1.829,1.829,0,0,1-2.037,2.04H7.425a1.823,1.823,0,0,1-2.037-2.04V7.751H2.318V24.34C2.318,27.565,4.073,29.272,7.3,29.272ZM10.843,15.65H20.956a1.233,1.233,0,0,0,1.278-1.293v-.5a1.217,1.217,0,0,0-1.278-1.275H10.843a1.206,1.206,0,0,0-1.265,1.275v.5A1.224,1.224,0,0,0,10.843,15.65ZM3.355,9.259H28.434a3.153,3.153,0,0,0,3.35-3.474V3.494A3.152,3.152,0,0,0,28.434.023H3.355A3.2,3.2,0,0,0,0,3.494V5.786A3.157,3.157,0,0,0,3.355,9.259Zm.6-2.829c-.719,0-1.032-.326-1.032-1.045V3.9c0-.721.313-1.048,1.032-1.048h23.88c.719,0,1.019.326,1.019,1.048V5.386c0,.719-.3,1.045-1.019,1.045Z" transform="translate(0 -0.023)" fill="#fff"/>
</svg>
