<svg xmlns="http://www.w3.org/2000/svg" width="31.447" height="31.445" viewBox="0 0 31.447 31.445">
  <path id="Path_483" data-name="Path 483" d="M18.31,29.143c2.79,0,5.16-4.311,5.779-5.326a5.132,5.132,0,0,0,.411-3.256c0-.52,1.594-1.672,1.594-2.988,0-1.285-3.1-2.35-3.1-3.122a.869.869,0,0,1,.728-.886c.661,0,2.327,2.173,3.237,2.173.6,0,.611-.579.946-.579.746,0,.914,4.341,3.441,5.543a4.035,4.035,0,0,0,1.226-2.98A14.954,14.954,0,0,0,17.71,2.875C13.282,2.888,11.5,4.582,11.5,6.263c0,2.06-1.607,2.53-1.607,3.774a1.207,1.207,0,0,0,1.335,1.233c1.681,0,1.827-1.858,2.695-1.858.631.012,1.2.981,2.312.981a.727.727,0,0,0,.768-.741c.036-.2.138-.3.324-.3a2.278,2.278,0,0,1,1.989,1.719c0,.612-.246,1.074-.634,1.074-.627,0-2.31-.752-3.821-.752-3.4,0-6.22,2.376-6.22,5.244,0,2.5,1.479,3.964,4.053,3.964a2.478,2.478,0,0,1,2.651,2.44C15.348,25.265,15.1,29.143,18.31,29.143Zm3.9-20.4c-.528,0-.737.275-1.243.275a.822.822,0,0,1-.855-.84c0-.742.733-1.161,1.981-1.161,1.065,0,1.872.556,1.872,1.282a.692.692,0,0,1-.629.751C22.784,9.05,22.509,8.742,22.214,8.742Zm-4.491,24.7A15.823,15.823,0,0,0,33.447,17.722,15.825,15.825,0,0,0,17.71,2,15.811,15.811,0,0,0,2,17.722,15.83,15.83,0,0,0,17.722,33.445Zm0-2.437a13.285,13.285,0,0,1-.012-26.57,13.387,13.387,0,0,1,13.3,13.285A13.377,13.377,0,0,1,17.722,31.008Z" transform="translate(-2 -2)" fill="#fff"/>
</svg>
