<svg id="Location" xmlns="http://www.w3.org/2000/svg" width="25.868" height="30.571" viewBox="0 0 25.868 30.571">
  <path id="Combined-Shape" d="M12.933,1A13,13,0,0,1,25.867,14.033c0,8.834-10.121,17.538-12.934,17.538S0,22.867,0,14.033A13,13,0,0,1,12.933,1Zm0,2.352A10.645,10.645,0,0,0,2.351,14.033c0,7.492,8.817,14.792,10.582,15.181,1.765-.39,10.582-7.69,10.582-15.181A10.645,10.645,0,0,0,12.933,3.352Zm0,5.487a5.1,5.1,0,1,1-5.1,5.1A5.1,5.1,0,0,1,12.935,8.839Zm0,2.352a2.744,2.744,0,1,0,2.744,2.745A2.747,2.747,0,0,0,12.935,11.19Z" transform="translate(0.001 -1)" fill="#fff" fill-rule="evenodd"/>
</svg>
